<?xml version="1.0" encoding="utf-8"?>
<!-- Generator: Adobe Illustrator 19.0.0, SVG Export Plug-In . SVG Version: 6.00 Build 0)  -->
<svg version="1.1" id="Layer_1" xmlns="http://www.w3.org/2000/svg" xmlns:xlink="http://www.w3.org/1999/xlink" x="0px" y="0px"
	 viewBox="0 0 28.5 28.5" style="enable-background:new 0 0 28.5 28.5;" xml:space="preserve">
<style type="text/css">
	.st0{fill:#3DB54A;}
	.st1{fill:#FFFFFF;}
</style>
<g>
	<path class="st0" d="M28.5,0.1v14.7c0,2.7-1,5.5-3.1,8.4c-3.2,3.5-6.7,5.3-10.5,5.3H0.1L0,28.4V13.7c0-2.7,1-5.5,3.1-8.4
		C6.4,1.8,9.9,0,13.7,0h14.7L28.5,0.1z"/>
</g>
<g>
	<path class="st1" d="M21.9,11.7v0.4c0,2.5-2,4.6-4.6,4.6h-5.3c-0.2,0-0.5,0-0.7,0.1v1.8h9.7v3.8H7.4v-6.1c0-2.4,2.5-3.4,4.6-3.4
		h5.3c0.4,0,0.8-0.3,0.8-0.7c0-0.5-0.1-1.1-0.8-1.1H8.3V7.1h8.9C19.8,7.1,21.9,9.2,21.9,11.7z"/>
</g>
</svg>
