<svg width="632" height="676" viewBox="0 0 632 676" fill="none" xmlns="http://www.w3.org/2000/svg">
<g clip-path="url(#clip0)">
<path d="M452.059 363.761V540.842L479.152 589.115L481.213 592.787H588.113L590.273 363.761H452.059Z" fill="#E6E6E6"/>
<path opacity="0.1" d="M452.059 363.761V540.842L479.151 589.115L480.814 363.761H452.059Z" fill="black"/>
<path d="M193.988 359.038V536.12L166.895 584.393L164.834 588.064H57.9339L55.7739 359.038H193.988Z" fill="#E6E6E6"/>
<path opacity="0.1" d="M193.988 359.038V536.121L166.896 584.393L165.233 359.038H193.988Z" fill="black"/>
<path d="M622.667 355.498V366.122H41.7366V350.775L95.7262 320.08H575.156L622.667 355.498Z" fill="#E6E6E6"/>
<path opacity="0.1" d="M622.667 355.498V366.122H41.7366V350.775L622.667 355.498Z" fill="black"/>
<path d="M124.881 408.621H98.9656L88.1677 400.358H136.759L124.881 408.621Z" fill="#3F3D56"/>
<path d="M124.881 442.857H98.9656L88.1677 434.594H136.759L124.881 442.857Z" fill="#3F3D56"/>
<path d="M124.881 491.26H98.9656L88.1677 482.996H136.759L124.881 491.26Z" fill="#3F3D56"/>
<path d="M124.881 539.662H98.9656L88.1677 531.398H136.759L124.881 539.662Z" fill="#3F3D56"/>
<path d="M521.166 413.343H547.081L557.879 405.08H509.288L521.166 413.343Z" fill="#3F3D56"/>
<path d="M521.166 447.579H547.081L557.879 439.316H509.288L521.166 447.579Z" fill="#3F3D56"/>
<path d="M521.166 495.982H547.081L557.879 487.719H509.288L521.166 495.982Z" fill="#3F3D56"/>
<path d="M521.166 544.384H547.081L557.879 536.12H509.288L521.166 544.384Z" fill="#3F3D56"/>
<path d="M421.526 342.639V345.669H272.467V343.245L272.672 342.639L276.346 331.735H418.478L421.526 342.639Z" fill="#3F3D56"/>
<path d="M478.889 339.674C478.617 340.943 477.592 342.282 475.276 343.548C466.964 348.092 450.063 342.336 450.063 342.336C450.063 342.336 437.041 339.913 437.041 333.552C437.407 333.278 437.788 333.03 438.183 332.81C441.677 330.788 453.264 325.801 473.808 333.021C475.322 333.54 476.674 334.509 477.714 335.819C478.174 336.314 478.521 336.922 478.725 337.592C478.929 338.262 478.985 338.975 478.889 339.674Z" fill="#3F3D56"/>
<path opacity="0.1" d="M478.888 339.674C468.715 343.936 459.646 344.254 450.34 337.187C446.821 334.342 442.559 332.808 438.182 332.81C441.677 330.788 453.264 325.801 473.808 333.021C475.322 333.54 476.674 334.509 477.713 335.819C478.174 336.314 478.521 336.922 478.725 337.592C478.929 338.262 478.985 338.975 478.888 339.674Z" fill="black"/>
<path d="M466.132 337.187C468.122 337.187 469.734 336.644 469.734 335.975C469.734 335.306 468.122 334.764 466.132 334.764C464.143 334.764 462.531 335.306 462.531 335.975C462.531 336.644 464.143 337.187 466.132 337.187Z" fill="#F2F2F2"/>
<path opacity="0.1" d="M421.526 342.639V345.669H272.467V343.245L272.672 342.639H421.526Z" fill="black"/>
<path d="M82.8792 -0.000244999C81.3664 -0.13604 79.8516 0.23393 78.5355 1.06064C77.2432 2.0282 76.4287 3.72326 75.5973 5.30062C72.4185 11.4035 68.1151 16.7181 62.9597 20.9078C59.2046 23.9154 54.4305 27.6654 55.073 33.2106C55.4119 35.0419 56.0307 36.7976 56.9033 38.404C60.3675 46.0494 69.8205 51.9576 68.8907 60.6815C72.3324 54.3821 67.7289 51.2673 71.1706 44.9679C72.8096 41.968 75.6569 38.5817 78.1315 40.4656C78.9601 41.0964 79.5042 42.2278 80.3669 42.7813C82.4255 44.102 84.6155 41.5771 86.4377 39.7887C92.7213 33.6217 101.657 35.2373 109.476 37.1588C113.168 38.0659 117.222 39.2561 119.405 43.1134C122.274 48.185 116.679 53.6623 115.265 59.3962C115.15 59.8848 115.144 60.3966 115.249 60.888C115.354 61.3794 115.566 61.8357 115.868 62.2178C116.169 62.6 116.551 62.8966 116.98 63.0824C117.409 63.2682 117.873 63.3375 118.332 63.2846C120.678 63.0315 123.457 62.8241 123.596 61.6985C126.548 61.8134 130.165 61.4479 131.43 58.0874C131.816 56.7578 132.021 55.3729 132.036 53.9779C132.5 48.333 134.692 43.1831 136.144 37.8105C137.595 32.4378 138.226 26.1414 135.777 21.378C134.902 19.7932 133.821 18.3563 132.567 17.1131C118.664 2.40369 100.386 -0.0220792 82.8792 -0.000244999Z" fill="#2F2E41"/>
<path d="M71.9142 71.7009C71.9142 71.7009 74.9377 99.2482 63.8513 101.452C52.7649 103.656 73.9299 141.12 73.9299 141.12L124.323 147.731L112.228 103.656C112.228 103.656 104.166 100.35 109.205 78.3122C114.244 56.2744 71.9142 71.7009 71.9142 71.7009Z" fill="#9F616A"/>
<path d="M41.1743 544.963L45.2061 605.568H66.3703L60.3239 544.963H41.1743Z" fill="#9F616A"/>
<path d="M196.384 430.367L199.407 481.053L222.589 470.035L213.518 428.163L196.384 430.367Z" fill="#9F616A"/>
<path d="M26.0569 313.566C26.0569 313.566 27.0647 377.476 33.1119 398.412C39.1591 419.348 38.1512 420.45 37.1433 423.755C36.1355 427.061 35.1276 424.857 35.1276 430.367C35.1276 435.876 33.1119 522.926 35.1276 530.639C37.1433 538.352 29.0805 551.575 35.1276 552.677C41.1747 553.779 69.3947 552.677 70.4025 546.065C71.4104 539.454 62.3397 537.25 66.3711 532.843C70.4025 528.435 76.4497 438.08 76.4497 438.08L90.5596 375.272L116.764 342.215H172.196L189.329 414.94C189.329 414.94 182.274 435.876 187.314 435.876C192.353 435.876 222.589 442.488 222.589 418.246C222.589 394.004 212.51 322.381 210.494 320.177C208.479 317.974 211.502 310.26 208.479 306.955C205.455 303.649 170.18 280.509 157.078 276.102C143.976 271.694 125.596 266.448 125.596 266.448L26.0569 313.566Z" fill="#2F2E41"/>
<path d="M222.588 461.22C222.588 461.22 207.471 455.71 200.415 472.239C193.36 488.767 196.384 493.175 196.384 493.175C196.384 493.175 219.565 501.99 223.596 497.582C225.35 495.665 230.92 494.998 236.653 494.858C245.384 494.643 247.707 481.138 239.461 477.993C239.215 477.899 238.966 477.817 238.714 477.748C230.651 475.544 222.588 461.22 222.588 461.22Z" fill="#2F2E41"/>
<path d="M94.5909 89.882C111.29 89.882 124.827 75.082 124.827 56.8253C124.827 38.5685 111.29 23.7685 94.5909 23.7685C77.8922 23.7685 64.3552 38.5685 64.3552 56.8253C64.3552 75.082 77.8922 89.882 94.5909 89.882Z" fill="#9F616A"/>
<path d="M55.2845 115.226C55.2845 115.226 104.669 126.245 116.764 108.614C128.858 90.984 133.897 158.199 133.897 158.199L139.944 228.72L130.874 267.287C130.874 267.287 83.5044 309.159 68.3866 312.464C53.2688 315.77 30.0881 317.974 30.0881 317.974C30.0881 317.974 37.1432 195.664 37.1432 193.46C37.1432 191.256 55.2845 115.226 55.2845 115.226Z" fill="#63C7FF"/>
<path d="M70.3035 94.56C70.3035 94.56 59.3158 87.6783 56.2922 94.2896C53.2687 100.901 25.0487 117.429 22.0252 117.429C19.0016 117.429 28.0723 208.886 24.0409 219.905C20.0094 230.924 0.860214 311.362 11.9466 317.974C23.033 324.585 14.9702 311.362 26.0566 327.891C37.143 344.419 91.5671 344.419 94.5907 337.808C97.6143 331.196 70.4022 281.611 75.4415 235.332C80.4807 189.052 88.5436 125.143 81.4886 116.327C74.4336 107.512 70.3035 94.56 70.3035 94.56Z" fill="#2F2E41"/>
<path d="M106.685 102.003L108.089 96.7209C108.089 96.7209 150.023 111.92 152.039 121.837C154.054 131.754 153.046 201.173 145.991 206.683C138.936 212.192 128.858 221.007 135.913 234.23C142.968 247.453 151.031 261.777 157.078 262.879C163.125 263.981 174.211 271.694 171.188 279.408C168.164 287.121 131.881 272.796 131.881 272.796C131.881 272.796 107.693 252.962 108.701 222.109C109.709 191.256 106.685 102.003 106.685 102.003Z" fill="#2F2E41"/>
<path d="M141.96 232.026L117.771 281.611C117.771 281.611 82.4966 321.279 102.654 325.687C122.811 330.094 133.897 289.325 133.897 289.325L160.101 248.555L141.96 232.026Z" fill="#9F616A"/>
<path d="M84.3521 8.64936C83.1333 8.55063 81.9126 8.80949 80.8161 9.39919C79.8246 10.1909 79.0074 11.2147 78.4243 12.396C75.736 16.817 72.2319 20.5744 68.1367 23.427C65.0799 25.5528 61.1936 28.2033 61.7166 32.1226C62.0005 33.4367 62.5058 34.6814 63.2066 35.7932C66.0363 41.2515 67.1628 47.569 66.4156 53.7896L74.8208 40.4326C76.155 38.3123 78.4728 35.9188 80.4873 37.2504C81.1618 37.6962 81.6047 38.4959 82.3069 38.8871C83.9827 39.8206 85.7655 38.036 87.2489 36.7719C92.3639 32.4131 99.638 33.555 106.003 34.9131C109.008 35.5543 112.309 36.3955 114.085 39.1218C117.037 43.6524 113.955 50.1989 115.678 55.4329C116.16 55.0637 116.57 54.5924 116.882 54.047C117.195 53.5016 117.404 52.8931 117.497 52.2576C119.9 52.3388 122.845 52.0805 123.874 49.7053C124.188 48.7744 124.354 47.7924 124.368 46.8007C124.746 42.8109 126.53 39.171 127.711 35.3737C128.893 31.5764 129.407 27.1261 127.413 23.7594C126.683 22.6186 125.803 21.6027 124.8 20.7449C113.483 10.3484 98.6029 8.63393 84.3521 8.64936Z" fill="#2F2E41"/>
<path d="M141.96 117.429L151.35 120.154C151.35 120.154 173.204 181.339 168.164 223.211C163.125 265.083 160.101 256.268 160.101 256.268C160.101 256.268 152.039 236.434 133.897 240.841L141.96 117.429Z" fill="#2F2E41"/>
<path d="M42.5707 597.558C40.1403 601.169 40.6276 606.331 38.4747 610.146C36.6086 613.454 33.0916 615.188 30.7574 618.119C30.0126 619.092 29.3486 620.137 28.7733 621.239C26.6081 625.204 24.8481 630.286 26.9806 634.273C28.6961 637.48 32.3019 638.733 35.6089 639.588C39.7888 640.667 44.1317 641.531 48.3598 640.706C52.5878 639.881 56.7201 637.051 58.2276 632.654C58.5239 631.548 58.8761 630.461 59.2827 629.399C61.5743 624.466 68.7625 624.413 71.1078 619.51C72.7492 616.08 71.2404 611.933 69.7322 608.43L65.126 597.731C63.5974 594.18 57.4006 596.222 54.1701 595.371C49.9569 594.262 45.6017 593.039 42.5707 597.558Z" fill="#2F2E41"/>
<path d="M8.9231 254.064L51.253 325.687C51.253 325.687 77.4572 362.049 85.5201 345.521C93.5829 328.993 57.3001 301.445 57.3001 301.445L30.088 246.351L8.9231 254.064Z" fill="#9F616A"/>
<path d="M30.0881 119.633L22.0252 117.429C22.0252 117.429 5.89956 122.939 1.86814 146.079C-2.16327 169.218 0.860281 261.777 5.89955 262.879C10.9388 263.981 30.7885 246.763 33.9658 250.413C37.1431 254.064 27.0645 235.332 30.088 225.415C33.1116 215.498 30.0881 119.633 30.0881 119.633Z" fill="#2F2E41"/>
<g clip-path="url(#clip1)">
<path d="M429.635 180.146H262.29C261.458 180.146 260.635 180.31 259.867 180.627C259.1 180.945 258.402 181.41 257.814 181.997C257.226 182.584 256.76 183.281 256.442 184.048C256.124 184.814 255.961 185.636 255.961 186.466V299.035C255.961 299.865 256.124 300.687 256.442 301.454C256.76 302.221 257.226 302.917 257.814 303.504C258.402 304.091 259.1 304.557 259.867 304.874C260.635 305.192 261.458 305.355 262.29 305.355H325.815L323.435 320.529C323.435 320.529 309.834 327.744 319.398 327.956C328.961 328.169 374.015 327.956 374.015 327.956C374.015 327.956 382.728 327.956 368.915 320.316L366.676 305.355H429.635C430.467 305.355 431.29 305.192 432.057 304.874C432.825 304.557 433.523 304.091 434.111 303.504C434.698 302.917 435.165 302.221 435.483 301.454C435.801 300.687 435.964 299.865 435.964 299.035V186.466C435.964 185.636 435.801 184.814 435.483 184.048C435.165 183.281 434.698 182.584 434.111 181.997C433.523 181.41 432.825 180.945 432.057 180.627C431.29 180.31 430.467 180.146 429.635 180.146Z" fill="#3F3D56"/>
<path d="M429.907 186.831H262.018V280.631H429.907V186.831Z" fill="#F2F2F2"/>
<path d="M345.962 184.921C346.549 184.921 347.025 184.446 347.025 183.86C347.025 183.274 346.549 182.799 345.962 182.799C345.376 182.799 344.9 183.274 344.9 183.86C344.9 184.446 345.376 184.921 345.962 184.921Z" fill="#F2F2F2"/>
<path d="M345.962 300.792C348.192 300.792 350 298.987 350 296.76C350 294.533 348.192 292.728 345.962 292.728C343.732 292.728 341.924 294.533 341.924 296.76C341.924 298.987 343.732 300.792 345.962 300.792Z" fill="#F2F2F2"/>
<g clip-path="url(#clip2)">
<path d="M429.851 186.897H262.091V280.439H429.851V186.897Z" fill="#3F3D56"/>
<path d="M344.278 199.685H309.132C309.075 199.686 309.02 199.676 308.968 199.658C308.916 199.64 308.869 199.614 308.829 199.58C308.79 199.547 308.758 199.507 308.737 199.464C308.715 199.42 308.704 199.373 308.704 199.326C308.704 199.279 308.715 199.232 308.737 199.189C308.758 199.145 308.79 199.105 308.829 199.072C308.869 199.039 308.916 199.012 308.968 198.994C309.02 198.976 309.075 198.967 309.132 198.967H344.278C344.391 198.967 344.5 199.005 344.579 199.072C344.659 199.14 344.704 199.231 344.704 199.326C344.704 199.421 344.659 199.513 344.579 199.58C344.5 199.647 344.391 199.685 344.278 199.685Z" fill="#F2F2F2"/>
<path d="M382.869 203.565H327.563C327.45 203.565 327.341 203.527 327.261 203.46C327.181 203.392 327.136 203.301 327.136 203.206C327.136 203.111 327.181 203.019 327.261 202.952C327.341 202.884 327.45 202.847 327.563 202.847H382.869C382.925 202.847 382.981 202.856 383.033 202.874C383.085 202.892 383.132 202.918 383.171 202.952C383.211 202.985 383.242 203.025 383.264 203.068C383.285 203.112 383.296 203.159 383.296 203.206C383.296 203.253 383.285 203.3 383.264 203.343C383.242 203.387 383.211 203.426 383.171 203.46C383.132 203.493 383.085 203.52 383.033 203.538C382.981 203.556 382.925 203.565 382.869 203.565Z" fill="#F2F2F2"/>
<path d="M344.566 207.588H309.419C309.306 207.588 309.197 207.55 309.117 207.483C309.037 207.416 308.992 207.324 308.992 207.229C308.992 207.134 309.037 207.042 309.117 206.975C309.197 206.908 309.306 206.87 309.419 206.87H344.566C344.679 206.87 344.787 206.908 344.867 206.975C344.947 207.042 344.992 207.134 344.992 207.229C344.992 207.324 344.947 207.416 344.867 207.483C344.787 207.55 344.679 207.588 344.566 207.588Z" fill="#F2F2F2"/>
<path d="M382.87 207.588H347.723C347.61 207.588 347.501 207.551 347.421 207.483C347.341 207.416 347.296 207.324 347.296 207.229C347.296 207.134 347.341 207.042 347.421 206.975C347.501 206.908 347.61 206.87 347.723 206.87H382.87C382.983 206.87 383.091 206.908 383.171 206.975C383.251 207.042 383.296 207.134 383.296 207.229C383.296 207.324 383.251 207.416 383.171 207.483C383.091 207.551 382.983 207.588 382.87 207.588Z" fill="#F2F2F2"/>
<path d="M344.566 211.468H309.419C309.306 211.468 309.197 211.43 309.117 211.363C309.037 211.295 308.992 211.204 308.992 211.109C308.992 211.013 309.037 210.922 309.117 210.855C309.197 210.787 309.306 210.75 309.419 210.75H344.566C344.679 210.75 344.787 210.787 344.867 210.855C344.947 210.922 344.992 211.013 344.992 211.109C344.992 211.204 344.947 211.295 344.867 211.363C344.787 211.43 344.679 211.468 344.566 211.468Z" fill="#F2F2F2"/>
<path d="M344.709 215.348H309.563C309.449 215.348 309.341 215.31 309.261 215.242C309.181 215.175 309.136 215.084 309.136 214.988C309.136 214.893 309.181 214.802 309.261 214.734C309.341 214.667 309.449 214.629 309.563 214.629H344.709C344.823 214.629 344.931 214.667 345.011 214.734C345.091 214.802 345.136 214.893 345.136 214.988C345.136 215.084 345.091 215.175 345.011 215.242C344.931 215.31 344.823 215.348 344.709 215.348Z" fill="#F2F2F2"/>
<path d="M360.693 199.685H350.604C350.49 199.685 350.382 199.648 350.301 199.58C350.221 199.513 350.176 199.421 350.176 199.326C350.176 199.231 350.221 199.14 350.301 199.072C350.382 199.005 350.49 198.967 350.604 198.967H360.693C360.806 198.967 360.915 199.005 360.995 199.072C361.075 199.14 361.12 199.231 361.12 199.326C361.12 199.421 361.075 199.513 360.995 199.58C360.915 199.648 360.806 199.685 360.693 199.685Z" fill="#F2F2F2"/>
<path d="M360.693 211.468H350.604C350.49 211.468 350.382 211.43 350.301 211.363C350.221 211.295 350.176 211.204 350.176 211.109C350.176 211.013 350.221 210.922 350.301 210.855C350.382 210.787 350.49 210.75 350.604 210.75H360.693C360.806 210.75 360.915 210.787 360.995 210.855C361.075 210.922 361.12 211.013 361.12 211.109C361.12 211.204 361.075 211.295 360.995 211.363C360.915 211.43 360.806 211.468 360.693 211.468Z" fill="#F2F2F2"/>
<path d="M360.692 215.348H350.605C350.548 215.348 350.493 215.338 350.441 215.32C350.389 215.302 350.342 215.276 350.302 215.243C350.262 215.209 350.23 215.17 350.209 215.126C350.187 215.082 350.176 215.036 350.176 214.988C350.176 214.941 350.187 214.894 350.209 214.851C350.23 214.807 350.262 214.767 350.302 214.734C350.342 214.701 350.389 214.674 350.441 214.656C350.493 214.638 350.548 214.629 350.605 214.629H360.692C360.748 214.629 360.804 214.638 360.856 214.656C360.908 214.674 360.955 214.701 360.995 214.734C361.035 214.767 361.066 214.807 361.088 214.851C361.109 214.894 361.12 214.941 361.12 214.988C361.12 215.036 361.109 215.082 361.088 215.126C361.066 215.17 361.035 215.209 360.995 215.243C360.955 215.276 360.908 215.302 360.856 215.32C360.804 215.338 360.748 215.348 360.692 215.348Z" fill="#F2F2F2"/>
<path d="M377.54 215.348H367.451C367.338 215.347 367.229 215.309 367.149 215.242C367.069 215.175 367.024 215.083 367.024 214.988C367.024 214.893 367.069 214.802 367.149 214.735C367.229 214.667 367.338 214.629 367.451 214.629H377.54C377.596 214.629 377.652 214.638 377.704 214.656C377.756 214.674 377.803 214.701 377.843 214.734C377.882 214.767 377.914 214.807 377.936 214.851C377.957 214.894 377.968 214.941 377.968 214.988C377.968 215.036 377.957 215.082 377.936 215.126C377.914 215.17 377.882 215.209 377.843 215.243C377.803 215.276 377.756 215.302 377.704 215.32C377.652 215.338 377.596 215.348 377.54 215.348Z" fill="#F2F2F2"/>
<path d="M319.221 203.565H309.132C309.018 203.565 308.909 203.527 308.829 203.46C308.749 203.392 308.704 203.301 308.704 203.206C308.704 203.111 308.749 203.019 308.829 202.952C308.909 202.884 309.018 202.847 309.132 202.847H319.221C319.334 202.847 319.443 202.884 319.523 202.952C319.603 203.019 319.648 203.111 319.648 203.206C319.648 203.301 319.603 203.392 319.523 203.46C319.443 203.527 319.334 203.565 319.221 203.565Z" fill="#F2F2F2"/>
<path d="M344.422 257.449H309.275C309.162 257.449 309.053 257.411 308.973 257.343C308.893 257.276 308.848 257.185 308.848 257.089C308.848 256.994 308.893 256.903 308.973 256.835C309.053 256.768 309.162 256.73 309.275 256.73H344.422C344.535 256.73 344.643 256.768 344.723 256.835C344.803 256.903 344.848 256.994 344.848 257.089C344.848 257.185 344.803 257.276 344.723 257.343C344.643 257.411 344.535 257.449 344.422 257.449Z" fill="#F2F2F2"/>
<path d="M344.278 265.351H309.131C309.018 265.351 308.909 265.314 308.829 265.246C308.749 265.179 308.704 265.087 308.704 264.992C308.704 264.897 308.749 264.806 308.829 264.738C308.909 264.671 309.018 264.633 309.131 264.633H344.278C344.391 264.633 344.499 264.671 344.579 264.738C344.659 264.806 344.704 264.897 344.704 264.992C344.704 265.087 344.659 265.179 344.579 265.246C344.499 265.314 344.391 265.351 344.278 265.351Z" fill="#F2F2F2"/>
<path d="M344.277 269.231H309.132C309.075 269.231 309.02 269.222 308.968 269.204C308.916 269.186 308.869 269.159 308.829 269.126C308.79 269.093 308.758 269.053 308.737 269.009C308.715 268.966 308.704 268.919 308.704 268.872C308.704 268.825 308.715 268.778 308.737 268.734C308.758 268.691 308.79 268.651 308.829 268.618C308.869 268.584 308.916 268.558 308.968 268.54C309.02 268.522 309.075 268.513 309.132 268.513H344.277C344.333 268.513 344.388 268.522 344.44 268.54C344.492 268.558 344.539 268.584 344.579 268.618C344.619 268.651 344.65 268.691 344.672 268.734C344.693 268.778 344.704 268.825 344.704 268.872C344.704 268.919 344.693 268.966 344.672 269.009C344.65 269.053 344.619 269.093 344.579 269.126C344.539 269.159 344.492 269.186 344.44 269.204C344.388 269.222 344.333 269.231 344.277 269.231Z" fill="#F2F2F2"/>
<path d="M359.258 265.495H349.302C349.19 265.495 349.083 265.457 349.004 265.39C348.925 265.323 348.88 265.231 348.88 265.136C348.88 265.041 348.925 264.949 349.004 264.882C349.083 264.815 349.19 264.777 349.302 264.777H359.258C359.37 264.777 359.477 264.815 359.557 264.882C359.636 264.949 359.68 265.041 359.68 265.136C359.68 265.231 359.636 265.323 359.557 265.39C359.477 265.457 359.37 265.495 359.258 265.495Z" fill="#F2F2F2"/>
<path d="M359.258 269.231H349.302C349.19 269.231 349.083 269.193 349.004 269.126C348.925 269.058 348.88 268.967 348.88 268.872C348.88 268.777 348.925 268.685 349.004 268.618C349.083 268.55 349.19 268.513 349.302 268.513H359.258C359.37 268.513 359.477 268.55 359.557 268.618C359.636 268.685 359.68 268.777 359.68 268.872C359.68 268.967 359.636 269.058 359.557 269.126C359.477 269.193 359.37 269.231 359.258 269.231Z" fill="#F2F2F2"/>
<path d="M376.245 265.495H366.156C366.042 265.495 365.933 265.457 365.853 265.39C365.773 265.323 365.728 265.231 365.728 265.136C365.728 265.041 365.773 264.949 365.853 264.882C365.933 264.815 366.042 264.777 366.156 264.777H376.245C376.358 264.777 376.467 264.815 376.547 264.882C376.627 264.949 376.672 265.041 376.672 265.136C376.672 265.231 376.627 265.323 376.547 265.39C376.467 265.457 376.358 265.495 376.245 265.495Z" fill="#F2F2F2"/>
<path d="M382.869 261.472H327.563C327.45 261.472 327.341 261.434 327.261 261.367C327.181 261.299 327.136 261.208 327.136 261.113C327.136 261.017 327.181 260.926 327.261 260.859C327.341 260.791 327.45 260.753 327.563 260.753H382.869C382.983 260.753 383.091 260.791 383.171 260.859C383.251 260.926 383.296 261.017 383.296 261.113C383.296 261.208 383.251 261.299 383.171 261.367C383.091 261.434 382.983 261.472 382.869 261.472Z" fill="#F2F2F2"/>
<path d="M319.221 261.472H309.132C309.018 261.472 308.909 261.434 308.829 261.367C308.749 261.299 308.704 261.208 308.704 261.113C308.704 261.017 308.749 260.926 308.829 260.859C308.909 260.791 309.018 260.753 309.132 260.753H319.221C319.334 260.753 319.443 260.791 319.523 260.859C319.603 260.926 319.648 261.017 319.648 261.113C319.648 261.208 319.603 261.299 319.523 261.367C319.443 261.434 319.334 261.472 319.221 261.472Z" fill="#F2F2F2"/>
<path d="M382.869 273.254H327.564C327.508 273.254 327.452 273.245 327.4 273.227C327.348 273.209 327.301 273.183 327.262 273.149C327.222 273.116 327.19 273.076 327.169 273.033C327.147 272.989 327.136 272.942 327.136 272.895C327.136 272.848 327.147 272.801 327.169 272.757C327.19 272.714 327.222 272.674 327.262 272.641C327.301 272.608 327.348 272.581 327.4 272.563C327.452 272.545 327.508 272.536 327.564 272.536H382.869C382.983 272.536 383.091 272.574 383.171 272.641C383.251 272.708 383.296 272.8 383.296 272.895C383.296 272.99 383.251 273.082 383.171 273.149C383.091 273.217 382.983 273.254 382.869 273.254Z" fill="#F2F2F2"/>
<path d="M319.22 273.254H309.132C309.076 273.254 309.021 273.245 308.969 273.227C308.917 273.209 308.869 273.183 308.83 273.149C308.79 273.116 308.758 273.076 308.737 273.033C308.715 272.989 308.704 272.942 308.704 272.895C308.704 272.848 308.715 272.801 308.737 272.757C308.758 272.714 308.79 272.674 308.83 272.641C308.869 272.608 308.917 272.581 308.969 272.563C309.021 272.545 309.076 272.536 309.132 272.536H319.22C319.276 272.536 319.332 272.545 319.384 272.563C319.436 272.581 319.483 272.608 319.523 272.641C319.562 272.674 319.594 272.714 319.615 272.757C319.637 272.801 319.648 272.848 319.648 272.895C319.648 272.942 319.637 272.989 319.615 273.033C319.594 273.076 319.562 273.116 319.523 273.149C319.483 273.183 319.436 273.209 319.384 273.227C319.332 273.245 319.276 273.254 319.22 273.254Z" fill="#F2F2F2"/>
<path d="M337.842 224.831L326.848 236.111L337.842 247.39L340.315 244.82L332.002 236.182L340.384 227.472L337.842 224.831Z" fill="#63C7FF"/>
<path d="M354.158 224.831L365.152 236.111L354.158 247.39L351.685 244.82L359.999 236.182L351.616 227.472L354.158 224.831Z" fill="#63C7FF"/>
<path d="M268.096 190.633C268.891 190.633 269.536 190.022 269.536 189.268C269.536 188.514 268.891 187.903 268.096 187.903C267.301 187.903 266.656 188.514 266.656 189.268C266.656 190.022 267.301 190.633 268.096 190.633Z" fill="#6C63FF"/>
<path d="M271.912 190.633C272.668 190.633 273.28 190.022 273.28 189.268C273.28 188.514 272.668 187.903 271.912 187.903C271.157 187.903 270.544 188.514 270.544 189.268C270.544 190.022 271.157 190.633 271.912 190.633Z" fill="#6C63FF"/>
<path d="M275.728 190.633C276.523 190.633 277.168 190.022 277.168 189.268C277.168 188.514 276.523 187.903 275.728 187.903C274.933 187.903 274.288 188.514 274.288 189.268C274.288 190.022 274.933 190.633 275.728 190.633Z" fill="#6C63FF"/>
<path opacity="0.1" d="M429.851 191.653H262.091V192.129H429.851V191.653Z" fill="black"/>
</g>
</g>
<path d="M53 646C73.9868 646 91 645.105 91 644C91 642.895 73.9868 642 53 642C32.0132 642 15 642.895 15 644C15 645.105 32.0132 646 53 646Z" fill="#E6E6E6"/>
</g>
<defs>
<clipPath id="clip0">
<rect width="632" height="676" fill="white"/>
</clipPath>
<clipPath id="clip1">
<rect width="180" height="148" fill="white" transform="translate(256 180)"/>
</clipPath>
<clipPath id="clip2">
<rect width="167.76" height="93.5418" fill="white" transform="translate(262.048 186.897)"/>
</clipPath>
</defs>
</svg>
